<svg xmlns="http://www.w3.org/2000/svg" viewBox="0 0 58.44 64.04"><title>Asset 1</title><g id="Layer_2" data-name="Layer 2"><g id="Layer_1-2" data-name="Layer 1"><path fill="#0a0c11" d="M46.62,3.31c-1.3,2.9.9,6-5.9,7.6l-.2-.2c-.2-.1-.3-.2-.5-.3,1.4-.3,2.3-.7.7-1.2a7.31,7.31,0,0,0-3.6,0c-.3-.1-.7-.2-1-.3.4-.6-.3-.6-.8-.3a.35.35,0,0,1-.2.1,31.06,31.06,0,0,0-3.2-.4A19,19,0,0,1,35.82,6c1.3-.6.9-1.6-.3-1.3a9.44,9.44,0,0,0-4.7,2.8c.6-1.7,1.2-3.4,1.7-5.1.5-1.5-.7-2-1.5-.7a10.28,10.28,0,0,0-1.7,6.1c-1.4-1.8-.5-4.4-.5-6.4,0-.8-.5-.9-.9-.3a5.71,5.71,0,0,0,.4,7.1c-1.5-1-2.2-3-3.4-4.1-1.4-1.2,0,1.9,1.7,4.2-1.2.1-2.3.2-3.4.4-.1,0-.1-.1-.2-.1-.5-.3-1.2-.3-.8.3-.3.1-.7.2-1,.3a7.31,7.31,0,0,0-3.6,0c-1.6.5-.7.9.7,1.2-.2.1-.3.2-.5.3s-.2.1-.2.2c-6.9-1.6-4.6-4.7-5.9-7.6-1.8-3.6-10.6-5-11.7-.4-.1.2.2.3.4.2A3.33,3.33,0,0,1,6,4.21c1.7,4.9-7.2,9.5,6.1,16.1-.4,1.3-.8,2.7-1.1,4.1-4.9,2.3-7.9,13.7-7.9,19.4-1.4.4-3.4,4,.2,2.1a2.22,2.22,0,0,0,1.5,1.9c-.3,2.1.5,2.2,1.7.5.7,0,1.5-.7,1.9-.9,1.1,3.8,2.2-.3,1.6-1.4a6,6,0,0,1,.8-.8c.8,4.1,2,7.4,5.5,9.7.8,2.3,2,4.7,2.7,6.4-5.6-3.2-7.3,1.2-7.3,2.7,14.1-.1,12.2,1.2,13.2-6.1a32.41,32.41,0,0,0,8.8,0c.6,4.4.4,3.9.6,4.5a2.36,2.36,0,0,0,2.5,1.6h9.9c-.1-1.5-1.7-5.9-7.3-2.7.7-1.7,1.9-4.1,2.7-6.4,3.5-2.3,4.6-5.5,5.5-9.7l.8.8c-.6,1.3.6,5.1,1.6,1.4a3.72,3.72,0,0,0,1.9.9c1.2,1.8,2,1.7,1.7-.5a2.34,2.34,0,0,0,1.5-1.9c3.7,2,1.4-1.8.2-2.1,0-5.5-2.9-17-7.9-19.4-.3-1.4-.7-2.8-1.1-4.1,13.3-6.6,4.4-11.3,6.1-16.1A3.33,3.33,0,0,1,58,3.11c.2.2.5,0,.4-.2C57.12-1.69,48.32-.29,46.62,3.31Zm-11.5,9.1a6,6,0,0,1,5.7,5.7,5.09,5.09,0,0,1-5,5.7,6,6,0,0,1-5.7-5.7A5.2,5.2,0,0,1,35.12,12.41Zm-17.7,5.7a6,6,0,0,1,5.7-5.7,5.2,5.2,0,0,1,5,5.7,6,6,0,0,1-5.7,5.7C19.42,23.91,17.22,21.31,17.42,18.11Zm23.4,20.5c-2.5,3.2-6.9,5.1-11.7,5.1s-9.2-1.9-11.7-5.1a8.9,8.9,0,0,1-1.8-7.6,2.89,2.89,0,0,1,1.2-1.5,3.62,3.62,0,0,1,2.9-.3,31,31,0,0,0,18.8.1,3.67,3.67,0,0,1,2.9.3,2.48,2.48,0,0,1,1.2,1.5A8.62,8.62,0,0,1,40.82,38.61Z"/><path fill="#0a0c11" d="M40.92,30.51a3,3,0,0,0-2.1-.2l-1.1.3a1.05,1.05,0,0,1,.5.9,2.22,2.22,0,0,1-.1.9,2.07,2.07,0,0,1-2.5.6,2.27,2.27,0,0,1-.3-1.3.76.76,0,0,1,.2-.5,5,5,0,0,1-1.2.2,1.23,1.23,0,0,1,.4.8,2.79,2.79,0,0,1-.1,1,2.27,2.27,0,0,1-2.8.3,1.61,1.61,0,0,1-.3-1.1,2.35,2.35,0,0,1,.2-.8h-1.2c.1.2.2.3.3.5.1.6.2,1.2-.1,1.3a2.34,2.34,0,0,1-3,0,1.51,1.51,0,0,1-.1-1.2,1.49,1.49,0,0,1,.3-.7,6.15,6.15,0,0,1-1.3-.1,1.85,1.85,0,0,1,.2.7c0,.5,0,1-.2,1.1a2.44,2.44,0,0,1-3.1-.4,1.25,1.25,0,0,1-.1-.9,1.27,1.27,0,0,1,.4-.9,5.85,5.85,0,0,0-1.3-.2.75.75,0,0,1,.1.5c0,.6,0,1.2-.2,1.4a1.93,1.93,0,0,1-2.4-.6,2.22,2.22,0,0,1-.1-.9,1.05,1.05,0,0,1,.5-.9l-1.1-.3a2.2,2.2,0,0,0-.8-.1,2.77,2.77,0,0,0-1.3.3,1.27,1.27,0,0,0-.7.9,7.57,7.57,0,0,0,1.6,6.7,13.65,13.65,0,0,0,1.7,1.7c-.1-.8-.1-2,.3-2.2.9-.3,1.8.9,2.3,1.8a.31.31,0,0,0,.1.2,1.29,1.29,0,0,1-.8,1.5c.5.3,1.1.5,1.6.8,0-.1-.1-.2-.1-.3-.1-.7-.1-1.5.2-1.6a2.81,2.81,0,0,1,3.1.9,2.22,2.22,0,0,1,.1.9,1.05,1.05,0,0,1-.5.9c.5.1.9.1,1.4.2a1.14,1.14,0,0,1-.3-.8,2.68,2.68,0,0,1,.2-1.1,2.41,2.41,0,0,1,3,0,1.61,1.61,0,0,1,.3,1.1,1.88,1.88,0,0,1-.2.8,6.75,6.75,0,0,0,1.4-.2,1.35,1.35,0,0,1-.5-.9,2.22,2.22,0,0,1,.1-.9,2.41,2.41,0,0,1,2.8-.8c.3.2.3.9.3,1.5a.76.76,0,0,1-.1.4c.6-.2,1.1-.5,1.6-.7a1.2,1.2,0,0,1-.8-1.5c0-.1,0-.1.1-.2.5-.9,1.5-2.2,2.4-1.8.4.2.4,1.3.3,2.2a8.08,8.08,0,0,0,1.6-1.6,7.57,7.57,0,0,0,1.6-6.7C41.62,31,41.32,30.71,40.92,30.51Z"/><path fill="#0a0c11" d="M34.52,19.81a2,2,0,0,0,2-2,1.69,1.69,0,0,0-.3-1,.84.84,0,0,1-1.6-.3.86.86,0,0,1,.3-.6h-.4a2,2,0,1,0,0,3.9Zm-.6-2a.5.5,0,1,1-.5.5A.47.47,0,0,1,33.92,17.81Z"/><path fill="#0a0c11" d="M23.72,19.81a2,2,0,0,0,0-4h-.4a.86.86,0,0,1,.3.6.79.79,0,0,1-.8.8,1,1,0,0,1-.8-.5,1.69,1.69,0,0,0-.3,1A2,2,0,0,0,23.72,19.81Zm.6-2a.5.5,0,1,1-.5.5C23.92,18,24.12,17.81,24.32,17.81Z"/></g></g></svg>