<svg xmlns="http://www.w3.org/2000/svg" viewBox="0 0 56.87 92.32"><defs><style>.cls-1{fill:#2e9797;}</style></defs><title>Asset 1</title><g id="Layer_2" data-name="Layer 2"><g id="Layer_1-2" data-name="Layer 1"><path class="cls-1" d="M17.25,12.2c2.62-1.52,6.2-2.57,11.15-2.57h0c5,0,8.54,1,11.16,2.57a9.55,9.55,0,0,0-.23-7.34,4.61,4.61,0,0,0-1.44-2l.14.09C36.14,1.36,33.15,0,28.45,0h0C23.7,0,20.7,1.37,18.77,2.95l.15-.1a4.6,4.6,0,0,0-1.44,2A9.54,9.54,0,0,0,17.25,12.2Z"/><path class="cls-1" d="M36.49,49.41c3.39-6.18,6.57-12.12,8.12-15.33a22.34,22.34,0,0,0,1.9-6.92,43.54,43.54,0,0,0,.09-5.6c-.71-5.1-4.71-13.07-5.44-14.65a11.43,11.43,0,0,0-1.28-2.14,10.29,10.29,0,0,1,.27,7.75A47.7,47.7,0,0,1,37,20.14c-.37.75-4,7.24-8.59,15.2-4.71-8.26-8.22-14.44-8.6-15.2a47.74,47.74,0,0,1-3.11-7.62A10.3,10.3,0,0,1,17,4.77a11.43,11.43,0,0,0-1.28,2.14C15,8.57,10.64,17.16,10.2,22.2a51,51,0,0,0,.25,5.63,22,22,0,0,0,1.82,6.25C18.35,46.7,44.63,92.32,44.63,92.32l4-6.87L56.87,85S46.33,66.61,36.49,49.41Z"/><path class="cls-1" d="M0,85l8.27.46,4,6.87S20,78.79,28.11,64.44c-2.76-4.9-5.54-9.88-8.05-14.46C10.31,67,0,85,0,85Z"/></g></g></svg>